{
  "accessors": [
    {
      "bufferView": 2,
      "componentType": 5126,
      "count": 561,
      "max": [113.71635437011719, 61.14881134033203, 94.62916564941406],
      "min": [59.196353912353516, -0.49041807651519775, 39.785037994384766],
      "type": "VEC3"
    },
    {
      "bufferView": 2,
      "byteOffset": 6732,
      "componentType": 5126,
      "count": 561,
      "max": [0.9976459741592407, 0.9912717342376709, 0.9997473359107971],
      "min": [-0.9976459741592407, -0.9998685717582703, -0.9997473955154419],
      "type": "VEC3"
    },
    {
      "bufferView": 1,
      "componentType": 5126,
      "count": 561,
      "max": [0.8750002384185791, 1.000000238418579],
      "min": [0.1250000149011612, 0.0],
      "type": "VEC2"
    },
    {
      "bufferView": 0,
      "componentType": 5125,
      "count": 2928,
      "type": "SCALAR"
    },
    {
      "bufferView": 2,
      "byteOffset": 13464,
      "componentType": 5126,
      "count": 32,
      "max": [98.25053405761719, 61.14881134033203, 70.17406463623047],
      "min": [80.25394439697266, 57.1113166809082, 53.480674743652344],
      "type": "VEC3"
    },
    {
      "bufferView": 2,
      "byteOffset": 13848,
      "componentType": 5126,
      "count": 32,
      "max": [0.9941834211349487, 0.8635421991348267, 0.9453254342079163],
      "min": [-0.9845095872879028, -0.04123128205537796, -0.9837589263916016],
      "type": "VEC3"
    },
    {
      "bufferView": 1,
      "byteOffset": 4488,
      "componentType": 5126,
      "count": 32,
      "max": [0.791141152381897, 0.6657137870788574],
      "min": [0.7092541456222534, 0.5838587880134583],
      "type": "VEC2"
    },
    {
      "bufferView": 0,
      "byteOffset": 11712,
      "componentType": 5125,
      "count": 96,
      "type": "SCALAR"
    },
    {
      "bufferView": 2,
      "byteOffset": 14232,
      "componentType": 5126,
      "count": 1546,
      "max": [92.9881591796875, 80.5585708618164, 64.77867126464844],
      "min": [53.81151580810547, 50.87919235229492, 31.870174407958984],
      "type": "VEC3"
    },
    {
      "bufferView": 2,
      "byteOffset": 32784,
      "componentType": 5126,
      "count": 1546,
      "max": [0.9999803900718689, 0.9994174242019653, 0.9993368983268738],
      "min": [-0.997024655342102, -0.9984661936759949, -0.9987901449203491],
      "type": "VEC3"
    },
    {
      "bufferView": 1,
      "byteOffset": 4744,
      "componentType": 5126,
      "count": 1546,
      "max": [1.0000001192092896, 1.0000001192092896],
      "min": [0.0, 0.0],
      "type": "VEC2"
    },
    {
      "bufferView": 0,
      "byteOffset": 12096,
      "componentType": 5125,
      "count": 8784,
      "type": "SCALAR"
    },
    {
      "bufferView": 2,
      "byteOffset": 51336,
      "componentType": 5126,
      "count": 949,
      "max": [56.71553039550781, 165.25494384765625, 26.540416717529297],
      "min": [-56.715538024902344, 71.8971176147461, -16.294906616210938],
      "type": "VEC3"
    },
    {
      "bufferView": 2,
      "byteOffset": 62724,
      "componentType": 5126,
      "count": 949,
      "max": [0.9998155832290649, 0.9998552203178406, 0.9980147480964661],
      "min": [-0.9894047379493713, -0.9993119835853577, -0.9995407462120056],
      "type": "VEC3"
    },
    {
      "bufferView": 1,
      "byteOffset": 17112,
      "componentType": 5126,
      "count": 949,
      "max": [1.0000001192092896, 1.0000001192092896],
      "min": [0.0, 0.3749999701976776],
      "type": "VEC2"
    },
    {
      "bufferView": 0,
      "byteOffset": 47232,
      "componentType": 5125,
      "count": 4512,
      "type": "SCALAR"
    },
    {
      "bufferView": 2,
      "byteOffset": 74112,
      "componentType": 5126,
      "count": 2333,
      "max": [90.31058502197266, 247.91705322265625, 30.802396774291992],
      "min": [-90.31058502197266, 9.984268188476563, -58.001731872558594],
      "type": "VEC3"
    },
    {
      "bufferView": 2,
      "byteOffset": 102108,
      "componentType": 5126,
      "count": 2333,
      "max": [0.9999874830245972, 0.9999663233757019, 0.9999796152114868],
      "min": [-0.9999875426292419, -0.9999948143959045, -0.9999530911445618],
      "type": "VEC3"
    },
    {
      "bufferView": 1,
      "byteOffset": 24704,
      "componentType": 5126,
      "count": 2333,
      "max": [1.0000001192092896, 1.0000001192092896],
      "min": [0.0, 0.3749997019767761],
      "type": "VEC2"
    },
    {
      "bufferView": 0,
      "byteOffset": 65280,
      "componentType": 5125,
      "count": 11952,
      "type": "SCALAR"
    },
    {
      "bufferView": 2,
      "byteOffset": 130104,
      "componentType": 5126,
      "count": 352,
      "max": [28.70256805419922, 132.2226104736328, 29.541152954101563],
      "min": [-28.702571868896484, 108.04635620117188, -20.913570404052734],
      "type": "VEC3"
    },
    {
      "bufferView": 2,
      "byteOffset": 134328,
      "componentType": 5126,
      "count": 352,
      "max": [0.9915856122970581, 0.7167139649391174, 0.999752938747406],
      "min": [-0.9915854930877686, -0.6481825113296509, -0.9850830435752869],
      "type": "VEC3"
    },
    {
      "bufferView": 1,
      "byteOffset": 43368,
      "componentType": 5126,
      "count": 352,
      "max": [0.4479455351829529, 0.8750001192092896],
      "min": [0.3749999403953552, 0.375],
      "type": "VEC2"
    },
    {
      "bufferView": 0,
      "byteOffset": 113088,
      "componentType": 5125,
      "count": 1920,
      "type": "SCALAR"
    },
    {
      "bufferView": 2,
      "byteOffset": 138552,
      "componentType": 5126,
      "count": 4170,
      "max": [46.71588134765625, 162.56272888183594, 26.826889038085938],
      "min": [-46.715885162353516, 107.3703384399414, -22.680034637451172],
      "type": "VEC3"
    },
    {
      "bufferView": 2,
      "byteOffset": 188592,
      "componentType": 5126,
      "count": 4170,
      "max": [0.9999975562095642, 0.9997797012329102, 0.9999762177467346],
      "min": [-0.9999975562095642, -0.9998981952667236, -0.9996790289878845],
      "type": "VEC3"
    },
    {
      "bufferView": 1,
      "byteOffset": 46184,
      "componentType": 5126,
      "count": 4170,
      "max": [1.0000001192092896, 1.0000001192092896],
      "min": [0.0, 0.0],
      "type": "VEC2"
    },
    {
      "bufferView": 0,
      "byteOffset": 120768,
      "componentType": 5125,
      "count": 23472,
      "type": "SCALAR"
    },
    {
      "bufferView": 2,
      "byteOffset": 238632,
      "componentType": 5126,
      "count": 1073,
      "max": [9.495607376098633, 130.4883270263672, 32.20307159423828],
      "min": [-9.495607376098633, 107.88739013671875, 26.90606689453125],
      "type": "VEC3"
    },
    {
      "bufferView": 2,
      "byteOffset": 251508,
      "componentType": 5126,
      "count": 1073,
      "max": [1.0, 0.9983918070793152, 0.9969756007194519],
      "min": [-1.0, -0.9983912706375122, -0.9969756007194519],
      "type": "VEC3"
    },
    {
      "bufferView": 1,
      "byteOffset": 79544,
      "componentType": 5126,
      "count": 1073,
      "max": [0.8750001192092896, 1.0000001192092896],
      "min": [0.125, 0.0],
      "type": "VEC2"
    },
    {
      "bufferView": 0,
      "byteOffset": 214656,
      "componentType": 5125,
      "count": 5760,
      "type": "SCALAR"
    },
    {
      "bufferView": 2,
      "byteOffset": 264384,
      "componentType": 5126,
      "count": 6106,
      "max": [132.1102752685547, 264.8118896484375, 60.978553771972656],
      "min": [-132.11029052734375, 7.477940082550049, -91.73247528076172],
      "type": "VEC3"
    },
    {
      "bufferView": 2,
      "byteOffset": 337656,
      "componentType": 5126,
      "count": 6106,
      "max": [1.0, 1.0, 1.0],
      "min": [-1.0, -1.0, -1.0],
      "type": "VEC3"
    },
    {
      "bufferView": 1,
      "byteOffset": 88128,
      "componentType": 5126,
      "count": 6106,
      "max": [0.8750002384185791, 1.000000238418579],
      "min": [0.1249999925494194, 0.0],
      "type": "VEC2"
    },
    {
      "bufferView": 0,
      "byteOffset": 237696,
      "componentType": 5125,
      "count": 34200,
      "type": "SCALAR"
    },
    {
      "bufferView": 2,
      "byteOffset": 410928,
      "componentType": 5126,
      "count": 2202,
      "max": [52.623863220214844, 7.929019451141357, 62.36008834838867],
      "min": [-52.62385559082031, 1.6589909791946411, -14.716510772705078],
      "type": "VEC3"
    },
    {
      "bufferView": 2,
      "byteOffset": 437352,
      "componentType": 5126,
      "count": 2202,
      "max": [0.9981566667556763, 0.9963858127593994, 0.9988527894020081],
      "min": [-0.9981568455696106, -1.0, -0.9996824264526367],
      "type": "VEC3"
    },
    {
      "bufferView": 1,
      "byteOffset": 136976,
      "componentType": 5126,
      "count": 2202,
      "max": [0.8750001192092896, 1.0000001192092896],
      "min": [0.125, 0.0],
      "type": "VEC2"
    },
    {
      "bufferView": 0,
      "byteOffset": 374496,
      "componentType": 5125,
      "count": 11904,
      "type": "SCALAR"
    },
    {
      "bufferView": 2,
      "byteOffset": 463776,
      "componentType": 5126,
      "count": 320,
      "max": [48.850303649902344, 28.632884979248047, 31.738788604736328],
      "min": [-48.85029983520508, 7.423882961273193, 17.316987991333008],
      "type": "VEC3"
    },
    {
      "bufferView": 2,
      "byteOffset": 467616,
      "componentType": 5126,
      "count": 320,
      "max": [0.9993335604667664, 0.9944189786911011, 0.6685783863067627],
      "min": [-0.9993335604667664, -0.9999381303787231, -0.7529431581497192],
      "type": "VEC3"
    },
    {
      "bufferView": 1,
      "byteOffset": 154592,
      "componentType": 5126,
      "count": 320,
      "max": [0.858900785446167, 0.6614088416099548],
      "min": [0.6378107070922852, 0.6222175359725952],
      "type": "VEC2"
    },
    {
      "bufferView": 0,
      "byteOffset": 422112,
      "componentType": 5125,
      "count": 1536,
      "type": "SCALAR"
    },
    {
      "bufferView": 2,
      "byteOffset": 471456,
      "componentType": 5126,
      "count": 119,
      "max": [40.2849235534668, 235.16778564453125, 31.136045455932617],
      "min": [-40.2849235534668, 171.3453826904297, 26.858034133911133],
      "type": "VEC3"
    },
    {
      "bufferView": 2,
      "byteOffset": 472884,
      "componentType": 5126,
      "count": 119,
      "max": [0.16949942708015442, 0.25178104639053345, 0.9999890923500061],
      "min": [-0.1694987714290619, -0.2384994626045227, 0.9667029976844788],
      "type": "VEC3"
    },
    {
      "bufferView": 1,
      "byteOffset": 157152,
      "componentType": 5126,
      "count": 119,
      "max": [0.6117367744445801, 0.864415168762207],
      "min": [0.38838452100753784, 0.7607944011688232],
      "type": "VEC2"
    },
    {
      "bufferView": 0,
      "byteOffset": 428256,
      "componentType": 5125,
      "count": 624,
      "type": "SCALAR"
    },
    {
      "bufferView": 2,
      "byteOffset": 474312,
      "componentType": 5126,
      "count": 4608,
      "max": [29.603151321411133, 227.98655700683594, 32.71140670776367],
      "min": [-29.603147506713867, 207.19764709472656, 29.465654373168945],
      "type": "VEC3"
    },
    {
      "bufferView": 2,
      "byteOffset": 529608,
      "componentType": 5126,
      "count": 4608,
      "max": [0.9996102452278137, 0.9996140599250793, 0.9999987483024597],
      "min": [-0.9996102452278137, -0.9739677309989929, -0.9999987483024597],
      "type": "VEC3"
    },
    {
      "bufferView": 1,
      "byteOffset": 158104,
      "componentType": 5126,
      "count": 4608,
      "max": [0.8750001192092896, 1.0000001192092896],
      "min": [0.125, 0.0],
      "type": "VEC2"
    },
    {
      "bufferView": 0,
      "byteOffset": 430752,
      "componentType": 5125,
      "count": 6912,
      "type": "SCALAR"
    },
    {
      "bufferView": 2,
      "byteOffset": 584904,
      "componentType": 5126,
      "count": 600,
      "max": [21.98482322692871, 214.48890686035156, 31.959299087524414],
      "min": [-21.98482322692871, 180.97503662109375, 28.361650466918945],
      "type": "VEC3"
    },
    {
      "bufferView": 2,
      "byteOffset": 592104,
      "componentType": 5126,
      "count": 600,
      "max": [0.9992993474006653, 0.9994281530380249, 0.9989137053489685],
      "min": [-0.9992993474006653, -0.9999969601631165, -0.10018660128116608],
      "type": "VEC3"
    },
    {
      "bufferView": 1,
      "byteOffset": 194968,
      "componentType": 5126,
      "count": 600,
      "max": [0.8750001192092896, 1.0000001192092896],
      "min": [0.125, 0.0],
      "type": "VEC2"
    },
    {
      "bufferView": 0,
      "byteOffset": 458400,
      "componentType": 5125,
      "count": 2928,
      "type": "SCALAR"
    }
  ],
  "asset": {
    "extras": {
      "author": "prinsuRj (https://sketchfab.com/prinsuRj)",
      "license": "CC-BY-4.0 (http://creativecommons.org/licenses/by/4.0/)",
      "source": "https://sketchfab.com/3d-models/bomberman-af5dd3d0d2774d458d861f12e56e8ce7",
      "title": "Bomberman"
    },
    "generator": "Sketchfab-16.59.0",
    "version": "2.0"
  },
  "bufferViews": [
    {
      "buffer": 0,
      "byteLength": 470112,
      "name": "floatBufferViews",
      "target": 34963
    },
    {
      "buffer": 0,
      "byteLength": 199768,
      "byteOffset": 470112,
      "byteStride": 8,
      "name": "floatBufferViews",
      "target": 34962
    },
    {
      "buffer": 0,
      "byteLength": 599304,
      "byteOffset": 669880,
      "byteStride": 12,
      "name": "floatBufferViews",
      "target": 34962
    }
  ],
  "buffers": [
    {
      "byteLength": 1269184,
      "uri": "scene.bin"
    }
  ],
  "materials": [
    {
      "doubleSided": true,
      "name": "Mt_bombs",
      "pbrMetallicRoughness": {
        "baseColorFactor": [0.0332763, 0.02888, 0.08, 1.0],
        "metallicFactor": 0.0,
        "roughnessFactor": 0.9920217460117571
      }
    },
    {
      "doubleSided": true,
      "name": "mt_white",
      "pbrMetallicRoughness": {
        "metallicFactor": 0.0,
        "roughnessFactor": 0.7763932022500211
      }
    },
    {
      "doubleSided": true,
      "name": "mt_Bombs_vat",
      "pbrMetallicRoughness": {
        "baseColorFactor": [0.761, 0.48127, 0.175791, 1.0],
        "metallicFactor": 0.0,
        "roughnessFactor": 0.8840185049338356
      }
    },
    {
      "doubleSided": true,
      "name": "mt_scrren_top",
      "pbrMetallicRoughness": {
        "baseColorFactor": [0.360179, 0.272525, 0.991, 1.0],
        "metallicFactor": 0.0,
        "roughnessFactor": 0.9232952354642733
      }
    },
    {
      "doubleSided": true,
      "name": "mt_black",
      "pbrMetallicRoughness": {
        "baseColorFactor": [0.016, 0.016, 0.016, 1.0],
        "metallicFactor": 0.0,
        "roughnessFactor": 0.9964222912360003
      }
    },
    {
      "doubleSided": true,
      "name": "mt_jacket",
      "pbrMetallicRoughness": {
        "baseColorFactor": [0.078187, 0.219522, 0.799107, 1.0],
        "metallicFactor": 0.0,
        "roughnessFactor": 0.9482752272454066
      }
    },
    {
      "doubleSided": true,
      "name": "mt_gold",
      "pbrMetallicRoughness": {
        "baseColorFactor": [0.8, 0.37848, 0.0336, 1.0],
        "metallicFactor": 0.0,
        "roughnessFactor": 0.9008986264148489
      }
    },
    {
      "doubleSided": true,
      "name": "mt_pink",
      "pbrMetallicRoughness": {
        "baseColorFactor": [0.65108, 0.0312825, 0.347883, 1.0],
        "metallicFactor": 0.0,
        "roughnessFactor": 0.9584292592017102
      }
    },
    {
      "doubleSided": true,
      "name": "mt_pink_white",
      "pbrMetallicRoughness": {
        "baseColorFactor": [0.8, 0.8, 0.8, 1.0],
        "metallicFactor": 0.0,
        "roughnessFactor": 0.8211145618000169
      }
    },
    {
      "doubleSided": true,
      "name": "mt_d_pink",
      "pbrMetallicRoughness": {
        "baseColorFactor": [0.214, 0.042586, 0.134121, 1.0],
        "metallicFactor": 0.0,
        "roughnessFactor": 0.9808508855138309
      }
    },
    {
      "doubleSided": true,
      "name": "mt_screen",
      "pbrMetallicRoughness": {
        "baseColorFactor": [0.88, 0.532477, 0.37488, 1.0],
        "metallicFactor": 0.0,
        "roughnessFactor": 0.8669580056628543
      }
    },
    {
      "doubleSided": true,
      "name": "black",
      "pbrMetallicRoughness": {
        "baseColorFactor": [0.009, 0.009, 0.009, 1.0],
        "metallicFactor": 0.0,
        "roughnessFactor": 0.9979875388202502
      }
    },
    {
      "doubleSided": true,
      "name": "mt_eyes",
      "pbrMetallicRoughness": {
        "baseColorFactor": [0.02, 0.02, 0.02, 1.0],
        "metallicFactor": 0.0,
        "roughnessFactor": 0.9944900090744176
      }
    }
  ],
  "meshes": [
    {
      "name": "Bomb_Mt_bombs_0",
      "primitives": [
        {
          "attributes": {
            "NORMAL": 1,
            "POSITION": 0,
            "TEXCOORD_0": 2
          },
          "indices": 3,
          "material": 0,
          "mode": 4
        }
      ]
    },
    {
      "name": "Bomb_mt_white_0",
      "primitives": [
        {
          "attributes": {
            "NORMAL": 5,
            "POSITION": 4,
            "TEXCOORD_0": 6
          },
          "indices": 7,
          "material": 1,
          "mode": 4
        }
      ]
    },
    {
      "name": "Bomb_mt_Bombs_vat_0",
      "primitives": [
        {
          "attributes": {
            "NORMAL": 9,
            "POSITION": 8,
            "TEXCOORD_0": 10
          },
          "indices": 11,
          "material": 2,
          "mode": 4
        }
      ]
    },
    {
      "name": "Body_mt_scrren top_0",
      "primitives": [
        {
          "attributes": {
            "NORMAL": 13,
            "POSITION": 12,
            "TEXCOORD_0": 14
          },
          "indices": 15,
          "material": 3,
          "mode": 4
        }
      ]
    },
    {
      "name": "Body_mt_white_0",
      "primitives": [
        {
          "attributes": {
            "NORMAL": 17,
            "POSITION": 16,
            "TEXCOORD_0": 18
          },
          "indices": 19,
          "material": 1,
          "mode": 4
        }
      ]
    },
    {
      "name": "Body_mt_black_0",
      "primitives": [
        {
          "attributes": {
            "NORMAL": 21,
            "POSITION": 20,
            "TEXCOORD_0": 22
          },
          "indices": 23,
          "material": 4,
          "mode": 4
        }
      ]
    },
    {
      "name": "Body_mt_jacket_0",
      "primitives": [
        {
          "attributes": {
            "NORMAL": 25,
            "POSITION": 24,
            "TEXCOORD_0": 26
          },
          "indices": 27,
          "material": 5,
          "mode": 4
        }
      ]
    },
    {
      "name": "Body_mt_gold_0",
      "primitives": [
        {
          "attributes": {
            "NORMAL": 29,
            "POSITION": 28,
            "TEXCOORD_0": 30
          },
          "indices": 31,
          "material": 6,
          "mode": 4
        }
      ]
    },
    {
      "name": "Body_mt_pink_0",
      "primitives": [
        {
          "attributes": {
            "NORMAL": 33,
            "POSITION": 32,
            "TEXCOORD_0": 34
          },
          "indices": 35,
          "material": 7,
          "mode": 4
        }
      ]
    },
    {
      "name": "Body_mt_pink_white_0",
      "primitives": [
        {
          "attributes": {
            "NORMAL": 37,
            "POSITION": 36,
            "TEXCOORD_0": 38
          },
          "indices": 39,
          "material": 8,
          "mode": 4
        }
      ]
    },
    {
      "name": "Body_mt_d_pink_0",
      "primitives": [
        {
          "attributes": {
            "NORMAL": 41,
            "POSITION": 40,
            "TEXCOORD_0": 42
          },
          "indices": 43,
          "material": 9,
          "mode": 4
        }
      ]
    },
    {
      "name": "Body_mt_screen_0",
      "primitives": [
        {
          "attributes": {
            "NORMAL": 45,
            "POSITION": 44,
            "TEXCOORD_0": 46
          },
          "indices": 47,
          "material": 10,
          "mode": 4
        }
      ]
    },
    {
      "name": "Body_black_0",
      "primitives": [
        {
          "attributes": {
            "NORMAL": 49,
            "POSITION": 48,
            "TEXCOORD_0": 50
          },
          "indices": 51,
          "material": 11,
          "mode": 4
        }
      ]
    },
    {
      "name": "Body_mt_eyes_0",
      "primitives": [
        {
          "attributes": {
            "NORMAL": 53,
            "POSITION": 52,
            "TEXCOORD_0": 54
          },
          "indices": 55,
          "material": 12,
          "mode": 4
        }
      ]
    }
  ],
  "nodes": [
    {
      "children": [1],
      "matrix": [
        1.0, 0.0, 0.0, 0.0, 0.0, 2.220446049250313e-16, -1.0, 0.0, 0.0, 1.0,
        2.220446049250313e-16, 0.0, 0.0, 0.0, 0.0, 1.0
      ],
      "name": "Sketchfab_model"
    },
    {
      "children": [2],
      "matrix": [
        0.009999999776482582, 0.0, 0.0, 0.0, 0.0, 0.0, 0.009999999776482582,
        0.0, 0.0, -0.009999999776482582, 0.0, 0.0, 0.0, 0.0, 0.0, 1.0
      ],
      "name": "54ef4d129fa34a848d78915d7ddc4361.fbx"
    },
    {
      "children": [3, 7],
      "name": "RootNode"
    },
    {
      "children": [4, 5, 6],
      "name": "Bomb"
    },
    {
      "mesh": 0,
      "name": "Bomb_Mt_bombs_0"
    },
    {
      "mesh": 1,
      "name": "Bomb_mt_white_0"
    },
    {
      "mesh": 2,
      "name": "Bomb_mt_Bombs_vat_0"
    },
    {
      "children": [8, 9, 10, 11, 12, 13, 14, 15, 16, 17, 18],
      "name": "Body"
    },
    {
      "mesh": 3,
      "name": "Body_mt_scrren top_0"
    },
    {
      "mesh": 4,
      "name": "Body_mt_white_0"
    },
    {
      "mesh": 5,
      "name": "Body_mt_black_0"
    },
    {
      "mesh": 6,
      "name": "Body_mt_jacket_0"
    },
    {
      "mesh": 7,
      "name": "Body_mt_gold_0"
    },
    {
      "mesh": 8,
      "name": "Body_mt_pink_0"
    },
    {
      "mesh": 9,
      "name": "Body_mt_pink_white_0"
    },
    {
      "mesh": 10,
      "name": "Body_mt_d_pink_0"
    },
    {
      "mesh": 11,
      "name": "Body_mt_screen_0"
    },
    {
      "mesh": 12,
      "name": "Body_black_0"
    },
    {
      "mesh": 13,
      "name": "Body_mt_eyes_0"
    }
  ],
  "scene": 0,
  "scenes": [
    {
      "name": "Sketchfab_Scene",
      "nodes": [0]
    }
  ]
}
